<svg width="286" height="286" viewBox="0 0 286 286" fill="none" xmlns="http://www.w3.org/2000/svg">
<mask id="mask0_6694_295" style="mask-type:luminance" maskUnits="userSpaceOnUse" x="0" y="0" width="286" height="286">
<path d="M285.67 142.835C285.67 63.9494 221.721 0 142.835 0C63.9494 0 0 63.9494 0 142.835C0 221.721 63.9494 285.67 142.835 285.67C221.721 285.67 285.67 221.721 285.67 142.835Z" fill="white"/>
</mask>
<g mask="url(#mask0_6694_295)">
<path d="M285.67 142.835C285.67 63.9494 221.721 0 142.835 0C63.9494 0 0 63.9494 0 142.835C0 221.721 63.9494 285.67 142.835 285.67C221.721 285.67 285.67 221.721 285.67 142.835Z" fill="#B79AE0"/>
<path d="M291.481 220.968C290.502 220.984 289.382 220.999 288.146 221.015C280.864 221.12 269.572 221.277 259.169 221.423C255.018 221.481 251.008 221.539 247.458 221.586C250.296 218.952 252.17 215.544 252.484 211.11C252.662 208.665 250.94 194.624 250.065 190.614C251.269 190.038 252.248 189.311 252.552 188.4C253.133 186.656 251.934 185.813 251.002 184.667C250.133 183.604 251.364 181.594 251.023 180.112C250.882 179.51 246.626 174.84 246.228 174.102C245.197 172.197 243.804 169.338 242.453 167.726C240.94 165.925 236.846 163.491 236.548 163.108C236.176 162.632 237.286 159.496 237.145 158.014C235.993 145.848 213.518 132.189 202.619 130.137C200.404 129.718 198.792 130.865 198.65 130.718C198.231 130.278 196.87 120.86 196.263 118.777C190.85 100.202 177.134 82.6483 157.753 77.9105C155.256 77.2979 152.125 77.544 149.35 76.9367C128.101 72.314 115.337 66.9898 96.9929 82.3499C86.7842 90.899 84.1875 117.761 83.3028 130.812C83.1876 132.493 83.91 139.681 83.5907 140.005C83.4179 140.178 80.2088 140.037 78.7638 140.529C67.9269 144.204 62.498 162.166 57.7602 171.281C49.2843 187.588 35.8874 200.975 49.4152 219.031C51.0957 221.272 54.8337 223.659 58.8962 225.481C24.2129 225.303 -11.0044 223.497 -45.0542 220.952C-46.986 220.806 -48.9178 220.628 -50.8496 220.434V227.46C4.25103 231.161 58.9695 234.025 114.253 231.334C122.347 230.941 130.54 229.873 138.613 229.512C139.147 229.486 139.822 229.465 140.571 229.444C145.209 229.25 149.842 229.077 154.476 228.952C156.491 228.894 158.658 228.842 160.941 228.795C167.715 230.208 173.83 231.208 177.537 231.412C186.348 231.899 191.248 232.527 201.655 232.197C204.54 232.108 208.581 231.417 210.948 231.234C217.743 230.705 227.601 230.15 236.014 227.596C246.285 227.433 269.792 227.303 291.486 227.287V220.963L291.481 220.968ZM240.736 169.432C241.579 172.867 233.224 168.035 231.056 167.323C226.978 167.092 223.868 166.391 219.942 168.192C216.597 169.731 217.633 171.228 217.67 172.097C224.622 171.014 231.009 171.212 236.359 173.348C241.197 175.28 241.265 176.092 243.233 178.086C243.516 178.374 243.186 178.835 242.82 178.657C238.867 176.704 237.956 177.065 233.328 175.636C228.25 174.066 220.643 172.966 217.471 172.547C216.743 172.841 210.649 173.165 211.325 176.762C214.544 176.903 218.083 176.181 221.256 176.521C223.774 176.793 233.203 179.175 235.82 180.029C237.339 180.526 244.736 184.133 244.448 185.709C243.621 190.279 233.857 183.112 232.334 182.494C227.423 180.515 217.12 177.044 215.555 183.835C219.141 183.918 222.984 183.028 226.47 184.201C227.308 184.484 228.805 184.557 227.632 185.845C226.957 186.583 218.528 188.62 216.905 188.672C213.424 188.782 209.744 187.363 206.074 188.148C205.576 180.201 206.33 176.662 204.666 168.982C208.948 169.145 213.681 165.003 217.717 163.742C220.397 162.909 226.664 162.098 230.585 163.396C231.643 163.747 240.731 169.422 240.731 169.422L240.736 169.432ZM230.753 157.967L225.528 157.679C221.633 157.465 217.722 158.135 214.183 159.774C212.921 160.355 211.89 160.967 211.45 161.506C209.367 164.056 205.289 164.25 204.053 164.674C204.053 164.674 203.713 158.569 203.215 153.088C202.734 147.753 201.708 142.482 200.158 137.351L199.598 135.503C211.456 138.754 227.622 145.01 230.753 157.973V157.967ZM49.4885 200.011C56.9539 186.515 63.2048 169.558 71.1152 156.648C74.382 151.319 77.2456 147.282 83.753 145.612C83.9572 151.078 84.0933 156.57 84.2451 162.046C84.287 163.449 85.0408 164.789 85.0461 165.993C85.0618 169.113 84.0462 182.348 82.6693 184.395C81.1197 186.703 69.686 184.903 69.9634 190.546C70.1938 195.185 80.4391 189.478 81.9835 190.53C80.9155 193.064 79.6434 196.53 79.2455 199.21C78.722 202.702 77.8739 211.743 77.9367 215.12C77.989 218.162 80.0308 220.382 79.8318 223.428C64.0948 227.946 47.6981 217.026 49.4885 200.017V200.011ZM82.7845 225.334C83.4965 224.125 83.6012 222.465 83.2714 220.172C81.104 205.053 88.627 188.19 89.4489 173.846C90.9409 147.832 85.9623 126.875 92.4487 99.8198C92.8989 97.9509 97.574 86.8836 100.563 84.4649C102.228 83.1195 109.83 78.2507 111.028 77.6592C111.976 77.188 116.908 76.0362 117.866 75.874C126.985 74.3191 144.953 80.3815 144.953 80.3815C144.241 81.8944 141.796 82.24 140.304 83.3813C139.571 83.9414 137.838 85.5068 137.555 86.2292C135.76 90.8362 139.613 93.0298 139.707 91.3388C138.775 87.5642 140.817 89.0091 141.691 88.2134C144.157 85.9779 145.303 84.1927 149.376 84.2817C157.627 84.4649 169.448 98.2074 171.406 105.955C165.506 99.5528 157.92 86.5171 148 87.4595C146.256 87.627 143 88.4594 144.523 90.7472C145.146 91.6791 151.523 90.4802 150.994 93.7889C150.554 94.1972 144.387 93.6685 142.754 94.0716C142.141 94.2234 142.073 96.1918 140.094 96.4274C138.011 96.6735 131.195 91.8361 127.216 91.4225C120.185 90.6896 111.557 89.4384 107.715 96.2389C104.223 102.422 100.302 145.162 100.233 159.91C100.233 160.878 100.924 162.868 99.5267 162.721C99.1812 156.193 99.2545 149.622 98.9247 143.089C98.0347 125.226 94.2287 109.453 102.987 92.6319C103.678 91.3021 106.777 88.5432 108.139 88.1505C110.165 87.5642 121.583 85.9727 123.823 85.936C128.535 85.8627 128.86 86.6323 131.09 89.1086C134.336 92.7156 133.629 86.6271 132.566 86.0041C131.435 85.3392 127.724 79.303 121.122 80.1197C117.777 80.5333 112.578 81.2348 109.4 82.062C107.882 82.4599 99.0346 88.7945 97.9195 93.0664C90.6949 120.74 96.1395 167.673 95.8568 197.718C95.7312 211.152 96.0767 204.618 95.7521 217.439C95.6945 219.8 95.8987 222.921 96.328 225.004C96.2756 225.004 96.2233 225.004 96.1709 225.01C91.7262 225.156 87.2554 225.256 82.7793 225.339L82.7845 225.334ZM155.748 173.93C152.449 176.275 141.22 179.777 137.314 179.123C135.006 178.735 125.048 169.511 122.515 167.564C121.682 166.925 120.054 167.03 119.803 166.768C119.342 166.291 119.567 159.585 119.295 157.784C116.845 141.618 108.835 123.148 115.426 106.62C115.861 105.537 120.907 97.8304 121.467 97.5373C127.572 94.3281 133.456 100.448 138.032 100.584C146.083 100.825 152.177 92.5272 158.308 102.129C167.406 116.379 164.108 141.853 166.721 157.7C167.03 159.575 171.626 170.417 171.076 170.836L165.48 171.019L167.673 164.553C160.758 161.355 160.082 170.841 155.742 173.924L155.748 173.93ZM125.698 179.118C123.834 180.217 119.342 179.212 116.923 180.583L119.441 171.71C120.913 172.526 121.593 174.333 122.64 175.317C123.164 175.809 127.687 177.94 125.698 179.118ZM98.7676 224.91C99.0084 224.099 99.2649 223.057 99.5319 221.743C101.532 211.843 100.312 214.654 100.773 204.639C101.123 196.938 100.024 188.871 100.129 181.133L102.825 193.551C104.856 206.456 102.296 210.456 106.594 222.455C107.071 223.784 106.306 224.575 108.463 224.14C107.851 215.738 108.327 220.884 107.542 212.524C104.783 183.159 102.642 149.078 106.395 119.871C107.044 114.813 109.238 102.275 111.248 98.0294C112.018 96.4065 116.489 94.5375 115.845 96.9038C115.358 98.7047 112.18 101.82 111.138 104.134C100.872 126.907 117.499 153.004 113.191 175.139C112.552 178.416 110.882 181.85 110.254 185.578C108.264 197.42 111.081 211.864 120.577 219.717L122.902 221.067C124.645 222.68 125.567 218.136 127.682 219.188C129.818 220.251 133.069 221.444 136.927 222.659C124.232 223.46 111.604 224.418 98.7781 224.905L98.7676 224.91ZM148.413 219.418C146.335 218.921 133.744 215.911 133.252 215.298C131.985 213.728 140.246 209.964 141.456 209.424C147.319 206.796 155.983 204.268 162.266 202.556C165.736 201.608 168.197 203.524 170.836 199.729C172.6 197.19 172.448 195.876 169.077 195.677C166.328 195.509 151.874 199.959 148.387 201.184C140.309 204.027 131.687 211.115 123.242 209.833C113.458 208.351 114.28 192.891 115.583 185.552C119.012 184.547 122.839 184.787 126.205 184.264C127.687 184.034 128.881 182.672 130.195 182.62C131.917 182.552 134.273 184.641 136.644 184.625C144.539 184.573 152.287 179.793 159.24 177.207C160.931 176.579 162.81 176.997 164.265 176.49C166.93 175.558 169.024 173.16 171.956 173.228C174.071 185.426 172.343 199.038 175.767 210.948C176.715 214.235 179.531 220.533 181.364 224.994C170.192 224.182 159.496 222.078 148.413 219.418ZM190.164 225.366C188.62 225.355 187.096 225.308 185.578 225.245C184.463 219.439 179.814 206.739 179.421 204.576C178.181 197.739 180.673 189.091 180.311 182.159C179.872 173.657 175.128 164.799 173.93 157.47C173.008 151.853 173.809 144.994 173.27 139.142C172.752 133.556 170.925 127.954 170.312 122.436C170.197 121.41 169.563 117.447 170.961 117.185C173.338 124.76 178.735 131.278 180.406 138.979C186.211 165.799 178.542 192.488 191.656 218.005C192.64 219.921 195.09 221.413 195.19 224.099C194.959 225.449 191.258 225.366 190.164 225.36V225.366ZM205.273 225.01C204.1 224.952 200.603 224.575 199.943 223.879C198.949 222.826 192.63 209.88 191.892 207.833C188.771 199.168 187.258 184.096 187.185 174.767C187.18 173.914 187.405 171.118 188.709 171.092C189.944 179.913 191.426 189.667 193.96 198.184C194.556 200.179 199.1 213.592 199.493 205.608C194.619 182.29 194.384 156.884 188.101 134.1C185.656 125.226 179.29 104.118 174.668 97.1185C171.762 92.7156 166.564 87.1663 161.93 84.6272C163.119 82.1876 167.187 85.2502 168.642 86.1612C178.631 92.4225 187.504 106.06 190.63 117.337C196.917 140.042 198.383 165.485 198.86 188.75C198.964 193.829 201.195 202.085 201.849 207.105C201.969 208.042 205.514 220.628 208.571 224.983C207.288 225.046 206.168 225.057 205.278 225.015L205.273 225.01ZM206.262 193.755C209.299 193.467 211.639 195.106 214.707 195.143C218.544 195.195 221.842 193.284 225.109 193.127C231.653 192.813 238.187 193.347 244.673 192.206C244.825 192.179 244.987 192.148 245.16 192.117C245.464 199.577 250.034 213.115 243.521 217.408C238.438 220.759 221.518 223.931 211.189 224.805C211.414 224.219 211.77 223.685 211.806 223.313C212.565 215.602 205.77 201.687 206.262 193.755Z" fill="#4503A5"/>
<path d="M137.451 153.507C140.309 154.177 143.707 152.586 141.471 150.24C141.168 149.921 139.414 150.429 139.194 150.224C138.32 149.418 141.827 131.404 138.351 126.713C137.634 125.75 136.864 125.095 135.597 125.53C132.917 126.446 135.514 135.493 135.623 137.901C135.765 141.031 134.425 152.8 137.456 153.507H137.451Z" fill="#4503A5"/>
<path d="M153.088 156.208C152.345 156.852 149.911 161.318 147.126 162.726C145.387 163.606 138.121 164.344 139.288 166.553C142.005 171.699 159.653 159.679 155.298 155.91C154.57 155.276 153.952 155.465 153.088 156.208Z" fill="#4503A5"/>
<path d="M121.153 116.19C124.132 116.169 129.493 118.939 130.598 118.928C130.268 116.51 126.038 113.583 122.357 113.175C119.347 112.84 116.787 114.693 116.332 115.641C114.866 118.698 116.819 116.211 121.159 116.185L121.153 116.19Z" fill="#4503A5"/>
<path d="M149.984 110.086C152.962 110.065 156.821 112.882 157.92 112.876C157.59 110.458 153.36 107.531 149.68 107.123C146.67 106.788 144.11 108.641 143.654 109.589C142.188 112.646 145.644 110.112 149.984 110.086Z" fill="#4503A5"/>
<path d="M214.183 159.774C217.722 158.135 221.633 157.47 225.528 157.679L230.753 157.967C227.627 145.005 211.461 138.749 199.598 135.498L200.158 137.346C201.708 142.476 202.734 147.748 203.216 153.083C203.708 158.569 204.053 164.668 204.053 164.668C205.289 164.244 209.372 164.051 211.451 161.501C211.89 160.967 212.922 160.355 214.183 159.768V159.774Z" fill="#7A56BF"/>
<path d="M83.753 145.607C77.2456 147.277 74.382 151.313 71.1152 156.643C63.2048 169.553 56.954 186.515 49.4885 200.006C47.6981 217.015 64.0948 227.931 79.8319 223.418C80.0308 220.371 77.989 218.151 77.9367 215.11C77.8791 211.733 78.7272 202.692 79.2455 199.2C79.6434 196.52 80.9155 193.054 81.9835 190.52C80.4391 189.468 70.1938 195.174 69.9635 190.536C69.686 184.892 81.1197 186.693 82.6693 184.384C84.041 182.337 85.0618 169.103 85.0461 165.982C85.0409 164.778 84.2818 163.438 84.2451 162.035C84.0881 156.559 83.9572 151.067 83.753 145.602V145.607Z" fill="#7A56BF"/>
<path d="M171.956 173.228C169.024 173.16 166.93 175.558 164.265 176.49C162.81 177.003 160.931 176.579 159.24 177.207C152.287 179.793 144.539 184.573 136.644 184.625C134.268 184.641 131.917 182.557 130.195 182.62C128.881 182.672 127.687 184.034 126.205 184.264C122.844 184.787 119.012 184.552 115.583 185.552C114.28 192.892 113.458 208.346 123.242 209.833C131.687 211.115 140.309 204.027 148.387 201.184C151.874 199.959 166.328 195.514 169.077 195.677C172.448 195.881 172.6 197.19 170.836 199.729C168.197 203.524 165.731 201.608 162.265 202.556C155.983 204.268 147.314 206.801 141.456 209.424C140.246 209.969 131.985 213.728 133.252 215.298C133.744 215.911 146.335 218.921 148.413 219.418C159.496 222.078 170.192 224.188 181.364 224.994C179.531 220.528 176.715 214.235 175.767 210.948C172.343 199.038 174.071 185.421 171.956 173.228Z" fill="#7A56BF"/>
<path d="M245.16 192.117C244.987 192.148 244.825 192.18 244.673 192.206C238.187 193.347 231.653 192.813 225.109 193.127C221.842 193.284 218.544 195.195 214.707 195.143C211.634 195.101 209.299 193.462 206.262 193.755C205.77 201.681 212.566 215.602 211.806 223.313C211.77 223.685 211.414 224.219 211.189 224.805C221.518 223.936 238.438 220.764 243.521 217.408C250.034 213.115 245.464 199.577 245.16 192.117Z" fill="#7A56BF"/>
<path d="M122.766 118.876C114.814 119.452 113.725 130.545 116.924 136.294C117.274 136.922 120.159 140.675 120.442 140.822C123.441 142.356 129.336 140.602 131.106 137.644C134.289 132.31 130.022 118.353 122.771 118.881L122.766 118.876ZM127.87 134.545C127.839 135.257 127.525 135.932 126.975 136.383C123.431 139.241 120.531 135.315 119.955 134.932C119.389 134.555 118.96 132.901 118.892 131.006C118.557 127.362 119.787 125.996 120.97 125.342C121.735 127.153 123.452 128.462 125.457 128.509C126.268 128.525 126.996 128.336 127.514 127.881C128.137 130.011 127.965 132.666 127.881 134.545H127.87Z" fill="#4503A5"/>
<path d="M156.967 116.389C152.015 112.562 145.989 113.651 144.335 119.562C142.654 125.561 141.309 132.362 147.204 135.456C158.805 141.545 166.679 123.891 156.973 116.384L156.967 116.389ZM154.24 131.399L153.12 132.477C149.083 133.859 147.235 129.556 146.9 129.184C146.775 129.043 146.911 126.404 147.324 123.933C147.848 121.352 148.999 120.337 150.115 119.981C149.921 122.248 151.701 124.279 153.915 124.326C154.476 124.336 155.235 124.116 155.92 123.771C156.004 123.975 156.077 124.185 156.146 124.399C156.931 126.881 156.125 129.598 154.245 131.404L154.24 131.399Z" fill="#4503A5"/>
</g>
</svg>
